<?xml version="1.0" encoding="utf-8"?>
<!-- Generator: Adobe Illustrator 16.0.0, SVG Export Plug-In . SVG Version: 6.00 Build 0)  -->
<!DOCTYPE svg PUBLIC "-//W3C//DTD SVG 1.1//EN" "http://www.w3.org/Graphics/SVG/1.1/DTD/svg11.dtd">
<svg version="1.1" id="Layer_1" xmlns="http://www.w3.org/2000/svg" xmlns:xlink="http://www.w3.org/1999/xlink" x="0px" y="0px"
	 width="683px" height="167.5px" viewBox="0 0 683 167.5" enable-background="new 0 0 683 167.5" xml:space="preserve">
<line fill="none" x1="304.323" y1="94.358" x2="304.323" y2="94.358"/>
<line fill="#E6E6E6" x1="276.792" y1="152.571" x2="276.792" y2="152.571"/>
<g>
	<g>
		<path fill="#FFFFFF" d="M121.966,87.187V27.764h40.857v7.036h-33.429V52.98h29.712v7.035h-29.712v27.171H121.966z"/>
		<path fill="#FFFFFF" d="M170.886,87.187V43.4h6.647v7.722c0.979-2.669,2.737-4.754,5.277-6.257
			c2.411-1.499,5.115-2.248,8.116-2.248h2.929v6.647h-2.929c-3.78,0-6.973,1.503-9.581,4.509c-2.541,2.872-3.813,6.334-3.813,10.387
			v23.027H170.886z"/>
		<path fill="#FFFFFF" d="M198.897,75.263c0-3.779,1.725-6.906,5.177-9.384c3.13-2.214,6.973-3.52,11.535-3.909
			c3.193-0.259,5.604-0.75,7.232-1.465c2.281-0.913,3.424-2.411,3.424-4.5c0-2.277-0.884-4.202-2.641-5.763
			c-1.758-1.565-3.846-2.348-6.257-2.348c-2.541,0-4.754,0.75-6.646,2.248c-1.954,1.565-2.93,3.52-2.93,5.863v1.47h-6.742v-2.935
			c0-3.779,1.69-6.872,5.081-9.282c3.117-2.215,6.848-3.324,11.199-3.324c4.154,0,7.756,1.138,10.81,3.419
			c3.18,2.411,4.774,5.474,4.774,9.187v22.287c0,1.239,0.452,2.281,1.364,3.126c0.85,0.845,1.892,1.268,3.131,1.268v5.964h-2.641
			c-1.753,0-3.333-0.456-4.745-1.368c-1.412-0.976-2.411-2.248-2.987-3.813c-1.369,2.022-3.289,3.52-5.762,4.499
			c-2.281,0.908-4.788,1.365-7.525,1.365c-4.495,0-8.077-1.139-10.748-3.42C200.262,82.168,198.897,79.109,198.897,75.263z
			 M205.544,75.263c0,1.892,0.845,3.453,2.54,4.692c1.566,1.109,3.453,1.662,5.667,1.662c3.391,0,6.291-1.008,8.702-3.03
			c2.541-2.017,3.813-4.596,3.813-7.722l-0.082-5.959c-1.815,1.499-5.129,2.439-9.931,2.833l-1.849,0.096
			c-2.401,0.197-4.446,0.946-6.137,2.248C206.451,71.45,205.544,73.179,205.544,75.263z"/>
		<path fill="#FFFFFF" d="M245.859,87.187V44.082h6.646l-0.019,4.5c1.171-2.022,2.891-3.554,5.167-4.596
			c2.142-0.913,4.515-1.369,7.117-1.369c4.611,0,8.544,1.696,11.795,5.082c3.246,3.323,4.87,7.333,4.87,12.024v27.464h-6.646V59.723
			c0-2.997-1.071-5.537-3.223-7.626c-2.151-2.084-4.759-3.126-7.818-3.126c-3.063,0-5.705,1.042-7.919,3.126
			c-2.214,2.089-3.323,4.629-3.323,7.626v27.464H245.859z"/>
		<path fill="#FFFFFF" d="M290.481,64.904c0-6.973,1.758-12.543,5.278-16.717c3.516-4.168,8.208-6.252,14.07-6.252
			c5.148,0,9.417,1.499,12.808,4.495c3.323,2.929,5.21,6.876,5.667,11.828h-6.646c-0.259-3.131-1.465-5.638-3.617-7.529
			c-2.151-1.888-4.888-2.834-8.212-2.834c-3.841,0-6.905,1.561-9.187,4.678c-2.344,3.054-3.515,7.15-3.515,12.279
			c0,5.139,1.171,9.258,3.515,12.38c2.281,3.117,5.345,4.678,9.187,4.678c3.261,0,5.965-1.008,8.116-3.031
			c2.146-2.017,3.386-4.725,3.712-8.11h6.646c-0.457,5.148-2.377,9.258-5.768,12.332c-3.323,3.18-7.558,4.77-12.707,4.77
			c-5.863,0-10.555-2.084-14.07-6.253C292.239,77.448,290.481,71.877,290.481,64.904z"/>
		<path fill="#FFFFFF" d="M335.008,64.904c0-6.973,1.815-12.543,5.456-16.717c3.644-4.168,8.486-6.252,14.531-6.252
			c6.041,0,10.92,2.084,14.623,6.252c3.641,4.173,5.461,9.744,5.461,16.717s-1.82,12.543-5.461,16.712
			c-3.703,4.169-8.582,6.253-14.623,6.253c-6.045,0-10.887-2.084-14.531-6.253C336.823,77.448,335.008,71.877,335.008,64.904z
			 M341.654,64.852c0,5.139,1.201,9.258,3.615,12.38c2.474,3.117,5.729,4.678,9.773,4.678c4.038,0,7.293-1.561,9.771-4.678
			c2.411-3.122,3.617-7.241,3.617-12.38c0-5.129-1.206-9.225-3.617-12.279c-2.479-3.117-5.733-4.678-9.771-4.678
			c-4.045,0-7.3,1.561-9.773,4.678C342.855,55.626,341.654,59.723,341.654,64.852z"/>
		<path fill="#FFFFFF" d="M385.101,34.405v-6.642h6.646v6.642H385.101z M385.101,87.187v-44.57h6.646v44.57H385.101z"/>
		<path fill="#FFFFFF" d="M400.985,70.864h6.646c0,3.098,0.946,5.585,2.833,7.458c1.893,1.873,4.398,2.805,7.525,2.805
			c3.193,0,5.733-0.586,7.625-1.753c1.888-1.172,2.834-2.699,2.834-4.586c0-2.598-1.334-4.644-4.006-6.142
			c-2.218-1.234-5.084-2.012-8.6-2.339c-3.717-0.321-6.844-1.69-9.384-4.096c-2.675-2.468-4.01-5.426-4.01-8.87
			c0-3.707,1.368-6.665,4.106-8.875c2.67-2.209,6.258-3.313,10.752-3.313c4.951,0,8.893,1.369,11.828,4.106
			c2.996,2.669,4.494,6.252,4.494,10.747h-6.646c0-2.67-0.879-4.821-2.642-6.449c-1.758-1.628-4.102-2.444-7.035-2.444
			c-2.479,0-4.467,0.557-5.965,1.661c-1.498,1.177-2.247,2.708-2.247,4.596c0,2.281,1.2,4.004,3.606,5.181
			c1.815,0.975,4.346,1.594,7.592,1.854c4.025,0.327,7.469,1.695,10.32,4.106c2.986,2.54,4.48,5.638,4.48,9.287
			c0,4.039-1.474,7.266-4.428,9.677c-2.978,2.411-6.944,3.615-11.895,3.615c-5.408,0-9.711-1.469-12.898-4.398
			C402.613,79.695,400.985,75.752,400.985,70.864z"/>
		<path fill="#FFFFFF" d="M472.25,87.187V27.764h25.212c4.755,0,8.865,1.595,12.323,4.788c3.447,3.256,5.178,7.232,5.178,11.924
			c0,2.67-0.653,5.115-1.96,7.328c-1.364,2.218-3.198,3.88-5.465,4.985c2.794,1.306,5.014,3.164,6.646,5.57
			c1.749,2.478,2.632,5.182,2.632,8.116c0,4.821-1.96,8.826-5.858,12.02c-3.784,3.126-8.279,4.691-13.495,4.691H472.25z
			 M479.675,53.37h17.787c2.738,0,5.082-0.851,7.042-2.555c2.016-1.7,3.034-3.833,3.034-6.387c0-2.747-0.98-5.104-2.939-7.074
			c-1.96-1.964-4.331-2.948-7.137-2.948h-17.787V53.37z M479.675,80.541h17.787c3.198,0,5.965-0.913,8.309-2.737
			c2.411-1.955,3.612-4.399,3.612-7.328c0-2.997-1.201-5.508-3.612-7.525c-2.344-1.96-5.11-2.935-8.309-2.935h-17.787V80.541z"/>
		<path fill="#FFFFFF" d="M523.712,64.904c0-6.973,1.815-12.543,5.455-16.717c3.649-4.168,8.491-6.252,14.531-6.252
			c6.041,0,10.921,2.084,14.628,6.252c3.631,4.173,5.455,9.744,5.455,16.717s-1.824,12.543-5.455,16.712
			c-3.707,4.169-8.587,6.253-14.628,6.253c-6.04,0-10.882-2.084-14.531-6.253C525.527,77.448,523.712,71.877,523.712,64.904z
			 M530.357,64.852c0,5.139,1.201,9.258,3.612,12.38c2.478,3.117,5.733,4.678,9.776,4.678c4.035,0,7.299-1.561,9.777-4.678
			c2.402-3.122,3.612-7.241,3.612-12.38c0-5.129-1.21-9.225-3.612-12.279c-2.479-3.117-5.742-4.678-9.777-4.678
			c-4.043,0-7.299,1.561-9.776,4.678C531.559,55.626,530.357,59.723,530.357,64.852z"/>
		<path fill="#FFFFFF" d="M575.364,43.4V30.693h6.646V43.4h6.742v5.959h-6.742v28.247c0,0.782,0.288,1.469,0.884,2.055
			c0.576,0.586,1.268,0.879,2.055,0.879h3.804v6.646h-5.954c-2.027,0-3.785-0.715-5.283-2.151c-1.439-1.498-2.151-3.255-2.151-5.278
			V49.359h-5.965V43.4H575.364z"/>
		<path fill="#FFFFFF" d="M595.169,64.904c0-6.973,1.69-12.543,5.071-16.717c3.399-4.168,7.896-6.252,13.494-6.252
			c5.6,0,10.094,2.084,13.494,6.252c3.382,4.173,5.081,9.744,5.081,16.717v2.247h-30.493c0,4.466,1.074,8.025,3.227,10.681
			c2.209,2.718,5.109,4.077,8.691,4.077c3.121,0,5.695-0.807,7.722-2.416c2.018-1.613,3.16-3.741,3.419-6.382h6.646
			c-0.395,4.495-2.218,8.082-5.475,10.751c-3.198,2.676-7.289,4.006-12.312,4.006c-5.599,0-10.095-2.084-13.494-6.253
			C596.859,77.448,595.169,71.877,595.169,64.904z M601.816,61.188h23.741c-0.326-4.039-1.556-7.266-3.707-9.677
			c-2.152-2.411-4.86-3.616-8.116-3.616s-5.964,1.206-8.116,3.616C603.41,53.922,602.142,57.148,601.816,61.188z"/>
		<path fill="#FFFFFF" d="M638.715,70.864h6.647c0,3.098,0.94,5.585,2.833,7.458c1.883,1.873,4.398,2.805,7.52,2.805
			c3.199,0,5.734-0.586,7.626-1.753c1.893-1.172,2.833-2.699,2.833-4.586c0-2.598-1.334-4.644-4.005-6.142
			c-2.218-1.234-5.081-2.012-8.604-2.339c-3.707-0.321-6.839-1.69-9.385-4.096c-2.669-2.468-4.004-5.426-4.004-8.87
			c0-3.707,1.373-6.665,4.111-8.875c2.67-2.209,6.252-3.313,10.747-3.313c4.946,0,8.893,1.369,11.822,4.106
			c2.997,2.669,4.495,6.252,4.495,10.747h-6.646c0-2.67-0.873-4.821-2.631-6.449c-1.758-1.628-4.11-2.444-7.04-2.444
			c-2.479,0-4.467,0.557-5.965,1.661c-1.497,1.177-2.247,2.708-2.247,4.596c0,2.281,1.199,4.004,3.602,5.181
			c1.814,0.975,4.35,1.594,7.597,1.854c4.024,0.327,7.462,1.695,10.325,4.106c2.986,2.54,4.476,5.638,4.476,9.287
			c0,4.039-1.479,7.266-4.428,9.677c-2.978,2.411-6.944,3.615-11.892,3.615c-5.416,0-9.709-1.469-12.908-4.398
			C640.339,79.695,638.715,75.752,638.715,70.864z"/>
	</g>
	<g>
		<path fill="#FFFFFF" d="M126.955,139.594V103.37h16.371c2.363,0,4.36,0.956,5.988,2.872c1.667,1.911,2.502,4.211,2.502,6.9
			c0,2.809-0.835,5.215-2.502,7.209c-1.628,1.998-3.625,2.992-5.988,2.992h-13.927v16.25H126.955z M142.899,121.023
			c1.792,0,3.318-0.734,4.582-2.199c1.263-1.427,1.896-3.175,1.896-5.254c0-2.156-0.634-4.01-1.896-5.557
			c-1.263-1.508-2.79-2.262-4.582-2.262h-13.5v15.271H142.899z"/>
		<path fill="#FFFFFF" d="M157.3,139.594V113.57h2.445v5.863c0.692-1.872,1.709-3.4,3.055-4.581c1.383-1.138,2.847-1.71,4.398-1.71
			h1.403v2.809c-0.121,0-0.265-0.037-0.427-0.119c-0.121-0.082-0.202-0.125-0.245-0.125c-1.912,0-3.645,0.816-5.191,2.445
			c-1.546,1.627-2.545,3.687-2.992,6.17v15.271H157.3z"/>
		<path fill="#FFFFFF" d="M174.887,136.356c-2.238-2.444-3.357-5.7-3.357-9.771c0-4.198,1.12-7.579,3.357-10.144
			c2.199-2.525,5.153-3.788,8.86-3.788c3.664,0,6.618,1.263,8.855,3.788c2.199,2.564,3.299,5.945,3.299,10.144
			c0,4.071-1.1,7.327-3.299,9.771c-2.238,2.444-5.191,3.664-8.855,3.664C180.04,140.021,177.086,138.801,174.887,136.356z
			 M190.83,134.892c1.753-2.078,2.627-4.85,2.627-8.307c0-3.588-0.875-6.435-2.627-8.554c-1.791-2.16-4.153-3.241-7.083-3.241
			c-2.973,0-5.335,1.081-7.088,3.241c-1.791,2.119-2.689,4.966-2.689,8.554c0,3.457,0.898,6.229,2.689,8.307
			c1.753,2.075,4.116,3.112,7.088,3.112C186.676,138.004,189.039,136.967,190.83,134.892z"/>
		<path fill="#FFFFFF" d="M202.365,149.366V113.57h2.444v5.373c0.692-1.867,1.854-3.399,3.482-4.58
			c1.628-1.139,3.419-1.71,5.374-1.71c3.505,0,6.295,1.263,8.371,3.788c2.118,2.564,3.179,5.945,3.179,10.144
			c0,4.071-1.018,7.327-3.054,9.771c-1.998,2.444-4.687,3.664-8.068,3.664c-1.993,0-3.828-0.546-5.493-1.646
			c-1.672-1.062-2.935-2.508-3.79-4.343v15.334H202.365z M220.325,135.012c1.628-2.198,2.445-5.09,2.445-8.673
			c0-3.581-0.817-6.435-2.445-8.553c-1.59-2.16-3.727-3.236-6.416-3.236c-2.525,0-4.663,1.157-6.411,3.481
			c-1.795,2.281-2.689,5.047-2.689,8.308c0,3.3,0.894,6.108,2.689,8.429c1.749,2.32,3.886,3.481,6.411,3.481
			C216.599,138.249,218.735,137.174,220.325,135.012z"/>
		<path fill="#FFFFFF" d="M231.74,139.594V103.37h2.444v15.089c0.812-1.752,2.036-3.155,3.664-4.217
			c1.59-1.057,3.318-1.589,5.191-1.589c2.445,0,4.543,0.917,6.296,2.751c1.748,1.792,2.626,3.972,2.626,6.536v17.653h-2.445V122.43
			c0-2.117-0.633-3.914-1.896-5.377c-1.263-1.509-2.79-2.263-4.582-2.263c-1.992,0-3.808,0.734-5.436,2.199
			c-1.671,1.427-2.81,3.3-3.419,5.624v16.98H231.74z"/>
		<path fill="#FFFFFF" d="M261.236,136.722c-2.118-2.563-3.18-5.945-3.18-10.137c0-4.198,1.062-7.579,3.18-10.144
			c2.117-2.525,4.927-3.788,8.427-3.788c3.506,0,6.315,1.161,8.434,3.481c2.117,2.324,3.174,5.416,3.174,9.287v1.163h-20.77
			c0,3.538,0.835,6.372,2.506,8.489c1.667,2.118,3.885,3.175,6.656,3.175c2.08,0,3.953-0.548,5.624-1.647
			c1.709-1.143,2.891-2.627,3.54-4.461h2.444c-0.408,2.406-1.71,4.398-3.909,5.988c-2.2,1.585-4.764,2.381-7.698,2.381
			C266.163,140.51,263.353,139.248,261.236,136.722z M278.826,124.26v-0.916c-0.202-2.402-1.181-4.438-2.93-6.109
			c-1.795-1.628-3.871-2.444-6.233-2.444c-2.362,0-4.418,0.836-6.166,2.507c-1.796,1.709-2.79,3.808-2.997,6.291v0.672H278.826z"/>
		<path fill="#FFFFFF" d="M288.963,138.859c-0.941-1.057-1.407-2.357-1.407-3.909v-19.487h-3.726v-1.893h3.726v-7.391h2.445v7.391
			h3.544v1.893h-3.544v19.487c0,1.017,0.264,1.896,0.792,2.626c0.49,0.734,1.1,1.1,1.834,1.1c0.773,0,1.402-0.139,1.892-0.427v1.771
			c-0.898,0.327-1.589,0.489-2.074,0.489C291.101,140.51,289.939,139.959,288.963,138.859z"/>
		<path fill="#FFFFFF" d="M299.149,103.37h2.444v3.728h-2.444V103.37z M299.149,139.594V113.57h2.444v26.023H299.149z"/>
		<path fill="#FFFFFF" d="M311.544,136.602c-2.406-2.77-3.607-6.107-3.607-10.017c0-3.827,1.201-7.108,3.607-9.835
			c2.401-2.733,5.312-4.097,8.735-4.097c2.81,0,5.211,0.835,7.208,2.507c1.993,1.709,2.992,3.746,2.992,6.108h-2.444
			c0-1.71-0.754-3.18-2.258-4.399c-1.508-1.22-3.342-1.834-5.499-1.834c-2.727,0-5.071,1.123-7.025,3.361
			c-1.916,2.281-2.872,5.009-2.872,8.188c0,3.255,0.956,6.046,2.872,8.365c1.955,2.323,4.298,3.481,7.025,3.481
			c2.118,0,3.91-0.629,5.374-1.893c1.508-1.263,2.262-2.771,2.262-4.519h2.564c0,2.401-0.999,4.456-2.992,6.166
			c-1.998,1.715-4.399,2.569-7.208,2.569C316.855,140.756,313.945,139.367,311.544,136.602z"/>
		<path fill="#FFFFFF" d="M355.926,139.594V103.37h3.852l13.254,33.169l13.193-33.169h3.85v36.224h-2.443V106.18l-13.5,33.414
			h-2.261l-13.499-33.414v33.414H355.926z"/>
		<path fill="#FFFFFF" d="M400.453,137.884c-1.754-1.589-2.627-3.501-2.627-5.743v-18.57h2.443v18.57
			c0,1.671,0.629,3.117,1.893,4.336c1.264,1.182,2.79,1.772,4.581,1.772c2.118,0,4.011-0.812,5.682-2.444
			c1.671-1.628,2.728-3.683,3.175-6.166V113.57h2.443v26.023H415.6v-4.582c-0.73,1.59-1.912,2.872-3.54,3.848
			c-1.589,0.936-3.362,1.406-5.316,1.406C404.299,140.266,402.2,139.475,400.453,137.884z"/>
		<path fill="#FFFFFF" d="M426.946,137.821c-1.954-1.628-2.93-3.602-2.93-5.925h2.263c0,1.752,0.75,3.26,2.258,4.522
			c1.508,1.22,3.317,1.83,5.436,1.83c2.443,0,4.418-0.548,5.93-1.647c1.46-1.143,2.19-2.627,2.19-4.461
			c0-1.383-0.769-2.564-2.314-3.545c-1.552-0.936-3.626-1.526-6.233-1.771c-2.771-0.239-4.965-1.014-6.599-2.319
			c-1.667-1.302-2.503-2.911-2.503-4.826c0-2.156,0.836-3.827,2.503-5.009c1.671-1.182,4.015-1.771,7.026-1.771
			c2.891,0,5.195,0.634,6.91,1.892c1.748,1.263,2.621,2.953,2.621,5.071h-2.324c-0.277-1.585-1.057-2.829-2.318-3.727
			c-1.264-0.893-2.892-1.345-4.889-1.345c-2.199,0-3.948,0.452-5.255,1.345c-1.302,0.897-1.954,2.079-1.954,3.544
			c0,1.388,0.798,2.565,2.382,3.544c1.552,0.936,3.626,1.527,6.233,1.771c2.729,0.245,4.927,1.057,6.599,2.445
			c1.632,1.383,2.44,3.111,2.44,5.191c0,2.319-0.962,4.172-2.863,5.556c-1.882,1.388-4.402,2.079-7.582,2.079
			C431.206,140.266,428.862,139.45,426.946,137.821z"/>
		<path fill="#FFFFFF" d="M450.391,103.37h2.449v3.728h-2.449V103.37z M450.391,139.594V113.57h2.449v26.023H450.391z"/>
		<path fill="#FFFFFF" d="M462.78,136.602c-2.4-2.77-3.602-6.107-3.602-10.017c0-3.827,1.201-7.108,3.602-9.835
			c2.402-2.733,5.321-4.097,8.741-4.097c2.804,0,5.205,0.835,7.202,2.507c1.999,1.709,2.997,3.746,2.997,6.108h-2.439
			c0-1.71-0.76-3.18-2.268-4.399c-1.498-1.22-3.342-1.834-5.492-1.834c-2.729,0-5.072,1.123-7.031,3.361
			c-1.911,2.281-2.863,5.009-2.863,8.188c0,3.255,0.952,6.046,2.863,8.365c1.959,2.323,4.303,3.481,7.031,3.481
			c2.113,0,3.908-0.629,5.379-1.893c1.497-1.263,2.256-2.771,2.256-4.519h2.564c0,2.401-0.998,4.456-2.997,6.166
			c-1.997,1.715-4.398,2.569-7.202,2.569C468.102,140.756,465.183,139.367,462.78,136.602z"/>
		<path fill="#FFFFFF" d="M507.173,139.594V103.37h3.852l13.253,33.169l13.188-33.169h3.861v36.224h-2.449V106.18l-13.494,33.414
			h-2.267l-13.505-33.414v33.414H507.173z"/>
		<path fill="#FFFFFF" d="M549.432,103.37h2.44v3.728h-2.44V103.37z M549.432,139.594V113.57h2.44v26.023H549.432z"/>
		<path fill="#FFFFFF" d="M559.996,139.594V113.57h2.441v4.398c0.73-1.546,1.854-2.77,3.361-3.664
			c1.498-0.936,3.17-1.406,5.014-1.406c2.555,0,4.734,0.836,6.531,2.506c1.824,1.71,2.746,3.746,2.746,6.109v18.08h-2.439v-18.08
			c0-1.792-0.672-3.318-2.016-4.582c-1.346-1.263-2.959-1.896-4.822-1.896c-2.046,0-3.861,0.696-5.436,2.079
			c-1.596,1.427-2.574,3.198-2.939,5.315v17.164H559.996z"/>
		<path fill="#FFFFFF" d="M587.773,103.37h2.439v3.728h-2.439V103.37z M587.773,139.594V113.57h2.439v26.023H587.773z"/>
		<path fill="#FFFFFF" d="M599.126,137.821c-1.96-1.628-2.938-3.602-2.938-5.925h2.266c0,1.752,0.75,3.26,2.258,4.522
			c1.508,1.22,3.323,1.83,5.436,1.83c2.449,0,4.419-0.548,5.927-1.647c1.469-1.143,2.199-2.627,2.199-4.461
			c0-1.383-0.778-2.564-2.325-3.545c-1.545-0.936-3.62-1.526-6.223-1.771c-2.776-0.239-4.976-1.014-6.599-2.319
			c-1.671-1.302-2.507-2.911-2.507-4.826c0-2.156,0.836-3.827,2.507-5.009s4.005-1.771,7.021-1.771c2.891,0,5.196,0.634,6.906,1.892
			c1.748,1.263,2.623,2.953,2.623,5.071h-2.316c-0.287-1.585-1.065-2.829-2.323-3.727c-1.259-0.893-2.892-1.345-4.89-1.345
			c-2.199,0-3.947,0.452-5.254,1.345c-1.305,0.897-1.949,2.079-1.949,3.544c0,1.388,0.787,2.565,2.382,3.544
			c1.547,0.936,3.62,1.527,6.225,1.771c2.727,0.245,4.927,1.057,6.597,2.445c1.635,1.383,2.449,3.111,2.449,5.191
			c0,2.319-0.96,4.172-2.871,5.556c-1.873,1.388-4.398,2.079-7.578,2.079C603.381,140.266,601.037,139.45,599.126,137.821z"/>
		<path fill="#FFFFFF" d="M624.223,138.859c-0.941-1.057-1.412-2.357-1.412-3.909v-19.487h-3.717v-1.893h3.717v-7.391h2.449v7.391
			h3.545v1.893h-3.545v19.487c0,1.017,0.26,1.896,0.797,2.626c0.48,0.734,1.096,1.1,1.826,1.1c0.777,0,1.411-0.139,1.9-0.427v1.771
			c-0.902,0.327-1.594,0.489-2.084,0.489C626.355,140.51,625.202,139.959,624.223,138.859z"/>
		<path fill="#FFFFFF" d="M634.412,139.594V113.57h2.44v5.863c0.701-1.872,1.72-3.4,3.054-4.581c1.393-1.138,2.853-1.71,4.4-1.71
			h1.41v2.809c-0.125,0-0.268-0.037-0.432-0.119c-0.125-0.082-0.201-0.125-0.24-0.125c-1.921,0-3.649,0.816-5.195,2.445
			c-1.547,1.627-2.546,3.687-2.997,6.17v15.271H634.412z"/>
		<path fill="#FFFFFF" d="M649.193,147.536h1.893c0.932,0,1.949-0.753,3.055-2.261c1.096-1.508,2.094-3.482,2.987-5.927
			l-9.95-25.778h2.257l8.854,22.786l8.799-22.786h2.381l-11.18,28.832c-0.768,2.08-1.766,3.766-2.986,5.072
			c-1.268,1.263-2.526,1.892-3.795,1.892h-2.314V147.536z"/>
	</g>
	<line fill="#FFFFFF" x1="70.807" y1="26.66" x2="70.803" y2="26.664"/>
	<g>
		<g>
			<path fill="#FFFFFF" d="M106.051,106.664c-0.687-7.059-2.718-14.439-5.888-21.336c-2.862-6.276-6.632-12.279-11.17-17.84
				c-1.282-1.566-2.583-3.063-3.255-3.765l-1.537-1.676c-0.38-0.437-0.707-0.788-1.013-1.1l-0.461-0.461
				c-0.505-0.509-1.023-1.042-1.46-1.556c-0.029-0.038-0.072-0.086-0.101-0.129c-0.215-0.23-0.441-0.461-0.691-0.716
				c-0.327-0.331-0.706-0.706-1.032-1.119c-0.039-0.048-0.087-0.106-0.13-0.154c-2.353-2.593-4.332-4.946-6.051-7.188
				c-2.012-2.646-3.429-4.836-4.61-7.118c-1.364-2.593-2.387-5.489-3.031-8.615c-0.614-2.823-0.979-6.07-1.07-9.662
				c-0.096-3.189,0.096-6.257,0.303-8.808c0.144-1.7,0.307-3.203,0.47-4.533c0.12-1.033-0.274-2.065-1.062-2.757
				c-0.788-0.686-1.868-0.945-2.871-0.667c-1.503,0.389-3.05,0.903-4.577,1.537c-3.208,1.311-6.363,3.131-9.384,5.412
				c-3.852,2.93-7.223,6.541-10.022,10.724c-3.438,5.119-5.874,11.15-7.036,17.398c-1.33,6.881-1.182,14.642,0.408,21.859
				c1.508,6.973,4.433,14.09,8.466,20.612c2.127,3.399,4.173,6.247,6.195,8.629c0.6,0.74,2.266,2.685,2.281,2.709l0.663,0.754
				c0.461,0.532,0.792,0.932,1.133,1.32c0.308,0.38,0.562,0.692,0.855,0.985l0.048,0.057c3.15,3.775,5.379,6.537,7.218,8.995
				c2.027,2.694,3.813,5.312,5.446,7.99c1.753,2.857,3.001,5.354,3.929,7.862c1.047,2.838,1.743,5.925,2.06,9.177
				c0.297,2.853,0.303,6.06,0.01,9.782c-0.289,3.365-0.817,6.445-1.225,8.692c-0.312,1.546-0.615,2.958-0.894,4.183
				c-0.231,1.041,0.072,2.132,0.812,2.896c0.6,0.615,1.421,0.955,2.271,0.955c0.197,0,0.398-0.022,0.6-0.058
				c1.479-0.293,2.905-0.666,4.317-1.152c3.299-1.07,6.555-2.632,9.652-4.619c4.039-2.545,7.679-5.821,10.819-9.706
				c3.809-4.715,6.786-10.378,8.605-16.356C106.085,121.451,106.776,114.017,106.051,106.664z"/>
			<path fill="#FFFFFF" d="M44.198,125.994c-1.311-2.887-3.03-5.623-5.1-8.154c-0.519-0.635-1.153-1.373-1.46-1.695l-0.725-0.787
				c-0.192-0.212-0.322-0.365-0.471-0.5l-0.202-0.207c-0.226-0.23-0.457-0.471-0.653-0.701c-0.033-0.038-0.072-0.086-0.106-0.124
				l-0.274-0.279c-0.163-0.168-0.316-0.325-0.451-0.499c-0.034-0.033-0.072-0.072-0.111-0.119c-1.037-1.148-1.93-2.205-2.723-3.232
				c-0.667-0.885-1.436-1.955-2.117-3.266c-0.625-1.195-1.085-2.498-1.388-3.934c-0.274-1.297-0.437-2.775-0.48-4.413
				c-0.043-1.35,0.034-2.642,0.096-3.481c0.082-1.123-0.437-2.195-1.363-2.833c-0.932-0.63-2.127-0.726-3.136-0.255
				c-1.167,0.571-2.319,1.268-3.414,2.099c-1.753,1.329-3.294,2.987-4.572,4.894c-1.09,1.633-2.541,4.326-3.212,7.938
				c-0.61,3.141-0.538,6.689,0.187,9.979c0.692,3.185,2.022,6.435,3.871,9.427c0.976,1.542,1.902,2.838,2.8,3.899
				c0.259,0.331,0.836,0.984,1.085,1.287l-0.005,0.005l0.289,0.321c0.215,0.235,0.37,0.427,0.528,0.62
				c0.129,0.158,0.245,0.293,0.351,0.398l0.047,0.053c0.97,1.172,2.229,2.689,3.305,4.115c0.926,1.24,1.738,2.426,2.478,3.649
				c0.797,1.298,1.369,2.44,1.786,3.577c0.48,1.298,0.802,2.715,0.946,4.198c0.134,1.307,0.134,2.771,0.005,4.446
				c-0.082,0.994-0.221,2.046-0.423,3.213c-0.192,1.123,0.24,2.276,1.134,2.982c0.566,0.466,1.268,0.701,1.979,0.701
				c0.394,0,0.797-0.076,1.181-0.23c1.095-0.451,2.185-1.008,3.212-1.676c1.84-1.153,3.505-2.641,4.946-4.438
				c1.739-2.151,3.093-4.721,3.928-7.463c0.917-2.996,1.249-6.473,0.917-9.782C46.566,132.501,45.639,129.134,44.198,125.994z"/>
		</g>
	</g>
</g>
</svg>
